<?xml version="1.0" encoding="UTF-8" standalone="no"?>
<!DOCTYPE svg PUBLIC "-//W3C//DTD SVG 1.1//EN" "http://www.w3.org/Graphics/SVG/1.1/DTD/svg11.dtd">
<svg width="100%" height="100%" viewBox="0 0 12 25" version="1.1" xmlns="http://www.w3.org/2000/svg" xmlns:xlink="http://www.w3.org/1999/xlink" xml:space="preserve" xmlns:serif="http://www.serif.com/" style="fill-rule:evenodd;clip-rule:evenodd;stroke-linejoin:round;stroke-miterlimit:1.41421;">
    <g transform="matrix(1,0,0,1,-916.529,-2512.44)">
        <g transform="matrix(0.822,0,0,0.686,-1875.44,2216.93)">
            <g transform="matrix(0.321256,0,0,0.384946,3391.61,430.723)">
                <path d="M51.27,5.531L49.719,7.422C50.168,6.734 50.68,6.094 51.27,5.531Z" style="fill-rule:nonzero;"/>
                <path d="M52.785,4.305L51.41,5.399C51.832,4.992 52.297,4.629 52.785,4.305Z" style="fill-rule:nonzero;"/>
                <g transform="matrix(1,0,0,1,-9.57239,-2.47276)">
                    <path d="M69.434,11.312C67.547,4.999 61.301,1.296 55.481,3.035C54.501,3.324 53.598,3.753 52.786,4.3L51.411,5.398L51.395,5.414C51.372,5.429 51.344,5.457 51.321,5.48L51.301,5.488L51.27,5.531L49.719,7.421L49.711,7.429L41.692,17.156L37.903,21.75C37.903,21.75 37.903,21.757 37.895,21.765C37.704,22.074 37.532,22.371 37.372,22.66C37.223,23.015 37.106,23.363 36.876,23.679C36.876,23.679 36.876,23.687 36.868,23.695C36.719,24.043 36.586,24.39 36.469,24.757C36.227,25.445 36.036,26.16 35.84,26.937C35.731,27.336 35.633,27.757 35.516,28.207C35.516,28.214 35.508,28.222 35.508,28.23L33.426,36.511C32.688,39.398 32.497,43.41 33.325,45.937C33.376,46.101 33.426,46.269 33.481,46.425C33.497,46.476 33.524,46.515 33.54,46.566C33.629,46.789 33.739,47.003 33.864,47.195C33.973,47.359 33.946,47.808 33.848,48.355C33.848,48.414 33.833,48.472 33.817,48.531C33.801,48.613 33.774,48.714 33.758,48.82C33.751,48.859 33.743,48.902 33.727,48.945C33.719,48.976 33.719,49.003 33.711,49.039C33.696,49.113 33.672,49.179 33.653,49.253C33.653,49.277 33.645,49.293 33.645,49.312C33.637,49.328 33.629,49.343 33.629,49.363C33.547,49.652 33.454,49.941 33.364,50.191C33.09,50.945 32.626,51.566 31.797,52.023C30.911,52.214 29.684,52.585 27.891,54.054C26.083,55.531 25.079,57.839 24.981,60.273C24.973,60.355 24.981,60.433 24.973,60.507L24.973,60.929C24.973,61.07 24.981,61.21 24.989,61.351C24.997,61.382 24.997,61.433 25.004,61.476C25.137,63.242 25.751,65.015 26.887,66.515C28.868,69.136 31.512,70.593 36.407,69.691C37.922,69.418 40.02,68.304 41.555,67.121C42.219,66.613 43.055,65.886 43.411,65.406C43.426,65.394 43.774,65.054 44.333,64.07L46.813,70.398L47.044,70.988L48.114,73.558L48.114,73.574L56.071,92.644C55.95,92.652 55.833,92.659 55.708,92.659L55.657,92.659C51.973,92.702 48.668,92.734 46.563,93.437C45.454,93.968 44.805,94.691 44.832,95.71C44.848,96.339 44.899,97.284 45.903,97.277L52.993,97.261L64.028,97.23C64.235,97.23 64.426,97.171 64.59,97.089C64.836,96.964 65.043,96.773 65.188,96.499C65.203,96.476 65.219,96.441 65.235,96.409C65.508,95.831 65.5,94.933 65.301,94.152C65.27,93.945 65.211,93.761 65.145,93.597L65.242,91.308L66.024,53.527L66.024,53.476L65.965,52.124C65.973,52.078 65.973,52.035 65.973,51.976L68.617,25.746L69.746,17.422L69.746,17.414C70.133,15.473 70.059,13.383 69.434,11.312L69.434,11.312ZM54.496,70.921L54.023,69.319L53.808,68.464L53.808,68.456L48.195,46.089C49.273,45.159 51.187,43.105 51.519,41.316C52.23,37.37 52.414,32.23 52.488,27.711C52.969,27.121 53.523,26.441 54.09,25.746L54.902,47.504L55.109,52.504L55.375,56.066L57.199,79.968C55.769,75.191 54.496,70.922 54.496,70.922L54.496,70.921Z" style="fill-rule:nonzero;"/>
                </g>
                <path d="M33.645,49.316C33.637,49.332 33.629,49.347 33.629,49.367L33.622,49.367C33.625,49.355 33.625,49.339 33.645,49.316Z" style="fill-rule:nonzero;"/>
                <path d="M33.852,48.363C33.852,48.422 33.836,48.48 33.821,48.539C33.832,48.445 33.844,48.379 33.852,48.363Z" style="fill-rule:nonzero;"/>
                <path d="M33.852,48.363C33.934,47.691 33.629,46.988 33.543,46.574C33.633,46.797 33.743,47.011 33.868,47.203C33.977,47.367 33.95,47.816 33.852,48.363L33.852,48.363Z" style="fill-rule:nonzero;"/>
                <path d="M36.473,24.758C36.231,25.446 36.039,26.16 35.844,26.938L36.391,24.758L36.473,24.758Z" style="fill-rule:nonzero;"/>
                <path d="M37.895,21.766C37.704,22.075 37.532,22.371 37.372,22.661C37.477,22.403 37.602,22.137 37.801,21.871L37.895,21.766Z" style="fill-rule:nonzero;"/>
                <path d="M51.395,5.414C51.372,5.43 51.344,5.457 51.321,5.481L51.344,5.449L51.395,5.414Z" style="fill-rule:nonzero;"/>
                <path d="M37.375,22.66C37.227,23.015 37.109,23.363 36.879,23.68C37.023,23.34 37.184,23 37.375,22.66Z" style="fill-rule:nonzero;"/>
                <path d="M41.695,17.156L37.906,21.75C38.222,21.262 38.586,20.754 39.008,20.226C39.859,19.16 40.824,18.086 41.695,17.156L41.695,17.156Z" style="fill-rule:nonzero;"/>
            </g>
        </g>
    </g>
</svg>
