<?xml version="1.0" encoding="UTF-8" standalone="no"?>
<!DOCTYPE svg PUBLIC "-//W3C//DTD SVG 1.1//EN" "http://www.w3.org/Graphics/SVG/1.1/DTD/svg11.dtd">
<svg width="100%" height="100%" viewBox="0 0 26 25" version="1.1" xmlns="http://www.w3.org/2000/svg" xmlns:xlink="http://www.w3.org/1999/xlink" xml:space="preserve" xmlns:serif="http://www.serif.com/" style="fill-rule:evenodd;clip-rule:evenodd;stroke-linejoin:round;stroke-miterlimit:1.41421;">
    <g transform="matrix(1,0,0,1,-640.369,-2513.09)">
        <g transform="matrix(0.822,0,0,0.686,-1875.44,2216.93)">
            <g transform="matrix(0.344218,0,0,0.412459,3058.59,429.325)">
                <path d="M86.309,62.254L92.77,68.715L94.18,67.305L85.79,58.914L74.052,70.648C73.923,70.32 73.727,70.015 73.466,69.75L69.083,65.367C68.532,64.816 67.802,64.566 67.083,64.605L8.81,6.335C8.126,5.652 7.017,5.652 6.333,6.335C5.65,7.019 5.65,8.124 6.333,8.812L64.606,67.085C64.567,67.803 64.821,68.534 65.368,69.085L69.751,73.464C70.016,73.729 70.321,73.925 70.649,74.05L58.911,85.788L67.302,94.178L68.712,92.768L62.251,86.307C62.005,86.061 62.005,85.663 62.251,85.416C62.497,85.17 62.896,85.17 63.142,85.416L69.603,91.877L70.642,90.838L64.181,84.377C63.935,84.131 63.935,83.733 64.181,83.487C64.427,83.241 64.825,83.241 65.071,83.487L71.532,89.948L72.571,88.909L66.11,82.448C65.864,82.202 65.864,81.803 66.11,81.557C66.357,81.311 66.755,81.311 67.001,81.557L73.462,88.018L74.501,86.979L68.04,80.518C67.794,80.272 67.794,79.873 68.04,79.627C68.286,79.381 68.685,79.381 68.931,79.627L75.392,86.088L76.431,85.049L69.97,78.588C69.724,78.342 69.724,77.944 69.97,77.698C70.216,77.451 70.614,77.451 70.861,77.698L77.321,84.158L78.361,83.119L71.9,76.658C71.654,76.412 71.654,76.014 71.9,75.768C72.146,75.522 72.544,75.522 72.79,75.768L79.251,82.229L80.29,81.19L73.829,74.729C73.583,74.483 73.583,74.084 73.829,73.838C74.075,73.592 74.474,73.592 74.72,73.838L81.181,80.299L82.22,79.26L75.759,72.799C75.513,72.553 75.513,72.155 75.759,71.908C76.005,71.662 76.404,71.662 76.65,71.908L83.111,78.369L84.15,77.33L77.689,70.869C77.443,70.623 77.443,70.225 77.689,69.979C77.935,69.733 78.333,69.733 78.579,69.979L85.04,76.44L86.079,75.4L79.619,68.94C79.372,68.694 79.372,68.295 79.619,68.049C79.865,67.803 80.263,67.803 80.509,68.049L86.97,74.51L88.009,73.471L81.548,67.01C81.302,66.764 81.302,66.365 81.548,66.119C81.794,65.873 82.193,65.873 82.439,66.119L88.9,72.58L89.939,71.541L83.478,65.08C83.232,64.834 83.232,64.436 83.478,64.19C83.724,63.943 84.122,63.943 84.369,64.19L90.829,70.65L91.869,69.611L85.408,63.15C85.162,62.904 85.162,62.506 85.408,62.26C85.669,62.002 86.064,62.006 86.31,62.252L86.309,62.254Z" style="fill-rule:nonzero;"/>
            </g>
        </g>
    </g>
</svg>
