<?xml version="1.0" encoding="UTF-8" standalone="no"?>
<!DOCTYPE svg PUBLIC "-//W3C//DTD SVG 1.1//EN" "http://www.w3.org/Graphics/SVG/1.1/DTD/svg11.dtd">
<svg width="100%" height="100%" viewBox="0 0 21 20" version="1.1" xmlns="http://www.w3.org/2000/svg" xmlns:xlink="http://www.w3.org/1999/xlink" xml:space="preserve" xmlns:serif="http://www.serif.com/" style="fill-rule:evenodd;clip-rule:evenodd;stroke-linejoin:round;stroke-miterlimit:1.41421;">
    <g transform="matrix(1,0,0,1,-635.366,-2303.3)">
        <g transform="matrix(1,0,0,1,841.365,2185.28)">
            <g transform="matrix(0.22263,0,0,0.22263,-207.113,116.886)">
                <g>
                    <path d="M18.203,5.082C14.734,5.117 11.414,6.504 8.949,8.945C3.719,14.129 3.68,22.57 8.863,27.804C8.976,27.914 9.094,28.019 9.211,28.125L9.137,28.199C15.027,34.105 19.672,32.968 23.918,37.246C27.144,40.504 28.765,42.773 28.808,46.062C28.859,49.593 28.293,52.347 30.015,54.086C33.656,57.761 41.953,55.449 48.546,48.918C55.139,42.386 57.531,34.113 53.89,30.438C52.167,28.711 49.425,29.246 45.913,29.156C42.613,29.074 40.355,27.442 37.113,24.18C32.874,19.902 34.273,15.383 28.195,9.325L28.132,9.383C28.027,9.266 27.921,9.149 27.812,9.036C25.273,6.473 21.808,5.047 18.202,5.083L18.203,5.082ZM66.555,10.113C59.649,10.195 52.973,18.027 44.559,27.332C45.184,27.481 45.832,27.543 46.539,27.512C50.848,27.328 54.184,26.805 56.258,28.899C60.501,33.18 57.711,42.817 50.036,50.419C42.36,58.028 32.696,60.724 28.458,56.442C26.391,54.344 26.954,51.016 27.172,46.719C27.208,46.024 27.157,45.379 27.016,44.762C13.676,56.731 3.625,65.149 14.36,75.985C21.645,83.341 41.337,75.645 58.34,58.805C75.34,41.961 83.059,22.504 75.934,14.989C72.653,11.528 69.583,10.079 66.559,10.114L66.555,10.113ZM75.996,38.933C74.258,42.406 72.008,46.031 69.289,49.675L69.293,49.675C72.582,50.308 75.61,51.917 77.969,54.296C81.086,57.437 82.821,61.691 82.801,66.112C82.782,70.538 81,74.773 77.86,77.885C74.715,80.999 70.465,82.737 66.04,82.713C61.618,82.694 57.384,80.917 54.27,77.772C51.946,75.424 50.375,72.44 49.75,69.198C46.117,71.905 42.5,74.171 39.027,75.936L39.027,75.94C40.441,79.846 42.683,83.401 45.601,86.358C50.992,91.803 58.32,94.878 65.98,94.917C73.641,94.952 81,91.944 86.445,86.553C91.887,81.163 94.965,73.83 95,66.17C95.035,58.51 92.027,51.15 86.637,45.709C83.633,42.694 80,40.381 76,38.932L75.996,38.933Z" style="fill-rule:nonzero;"/>
                </g>
            </g>
        </g>
    </g>
</svg>
