<?xml version="1.0" encoding="UTF-8" standalone="no"?>
<!DOCTYPE svg PUBLIC "-//W3C//DTD SVG 1.1//EN" "http://www.w3.org/Graphics/SVG/1.1/DTD/svg11.dtd">
<svg width="100%" height="100%" viewBox="0 0 18 21" version="1.1" xmlns="http://www.w3.org/2000/svg" xmlns:xlink="http://www.w3.org/1999/xlink" xml:space="preserve" xmlns:serif="http://www.serif.com/" style="fill-rule:evenodd;clip-rule:evenodd;stroke-linejoin:round;stroke-miterlimit:1.41421;">
    <g transform="matrix(1,0,0,1,-643.558,-2406.78)">
        <g transform="matrix(0.822,0,0,0.686,-1875.44,2216.93)">
            <g transform="matrix(1.21655,0,0,1.45773,1948.97,-3230.26)">
                <path d="M926.641,2410.41C926.418,2409.92 925.941,2409.6 925.404,2409.57C925.092,2409.59 924.694,2409.62 924.191,2409.68C924.191,2409.68 921.699,2409.85 921.555,2409.37C921.555,2409.37 921.316,2408.83 921.052,2408.74C921.052,2408.74 920.908,2408.47 921.029,2408.35C921.029,2408.35 921.676,2406.74 922.155,2406.15C922.155,2406.15 922.539,2406.01 922.611,2405.81C922.611,2405.81 925.558,2405.76 927.044,2406.47C927.044,2406.47 928.218,2407.05 928.721,2407.57L930.575,2411.33L934.265,2418.58C934.354,2418.71 934.391,2418.87 934.47,2419.01C935.067,2420.11 934.784,2421.51 933.154,2422L918.908,2426.21C918.099,2426.45 917.249,2424.98 917.01,2424.17C916.771,2423.37 917.233,2421.51 918.042,2421.28C918.042,2421.28 925.421,2420.18 928.929,2419.66C929.358,2419.6 929.732,2419.34 929.938,2418.96C930.145,2418.58 930.161,2418.12 929.981,2417.73C929.005,2415.59 927.352,2411.97 926.641,2410.41Z" style="fill-rule:nonzero;"/>
            </g>
        </g>
    </g>
</svg>
