<?xml version="1.0" encoding="UTF-8" standalone="no"?>
<!DOCTYPE svg PUBLIC "-//W3C//DTD SVG 1.1//EN" "http://www.w3.org/Graphics/SVG/1.1/DTD/svg11.dtd">
<svg width="100%" height="100%" viewBox="0 0 21 23" version="1.1" xmlns="http://www.w3.org/2000/svg" xmlns:xlink="http://www.w3.org/1999/xlink" xml:space="preserve" xmlns:serif="http://www.serif.com/" style="fill-rule:evenodd;clip-rule:evenodd;stroke-linejoin:round;stroke-miterlimit:1.41421;">
    <g transform="matrix(1,0,0,1,-914.5,-2405.81)">
        <g transform="matrix(0.822,0,0,0.686,-1875.44,2216.93)">
            <g transform="matrix(0.27199,0,0,0.325913,3393.27,275.339)">
                <path d="M7.164,63.383C7.164,63.383 13.379,49.09 36.426,58.156C36.426,58.156 39.266,55.543 43.286,53.418C43.286,53.418 53.466,48.028 63.433,56.195C63.433,56.195 66.969,57.066 67.719,55.215C67.719,55.215 64.183,32.453 64.613,29.731C64.613,29.731 64.613,28.208 63.433,25.266C62.254,22.325 62.254,22.325 58.398,17.317C58.398,17.317 56.039,16.336 48.644,17.317C48.644,17.317 37.499,18.079 36.855,15.903C36.855,15.903 35.785,13.508 34.605,13.071C34.605,13.071 33.961,11.872 34.5,11.329C34.5,11.329 37.394,4.141 39.539,1.528C39.539,1.528 41.254,0.875 41.574,0.004C41.574,0.004 54.758,-0.214 61.402,2.946C61.402,2.946 66.656,5.559 68.906,7.848C68.906,7.848 77.051,19.61 79.515,23.746C79.515,23.746 90.874,40.301 91.628,48.141C91.628,48.141 91.308,48.469 92.163,50.864C92.163,50.864 95.378,55.657 96.769,63.93C96.769,63.93 97.519,67.852 96.073,71.555C96.073,71.555 90.124,79.832 83.479,79.504C83.479,79.504 67.081,95.184 52.291,96.274C52.291,96.274 44.467,96.274 42.643,95.294C42.643,95.294 38.463,95.294 36.854,96.274C36.854,96.274 30.424,98.411 29.885,98.516C29.35,98.626 24.205,100.587 21.631,99.825C19.061,99.063 -2.482,73.075 4.377,65.345" style="fill-rule:nonzero;"/>
            </g>
        </g>
    </g>
</svg>
