<?xml version="1.0" encoding="UTF-8" standalone="no"?>
<!DOCTYPE svg PUBLIC "-//W3C//DTD SVG 1.1//EN" "http://www.w3.org/Graphics/SVG/1.1/DTD/svg11.dtd">
<svg width="100%" height="100%" viewBox="0 0 278 278" version="1.1" xmlns="http://www.w3.org/2000/svg" xmlns:xlink="http://www.w3.org/1999/xlink" xml:space="preserve" xmlns:serif="http://www.serif.com/" style="fill-rule:evenodd;clip-rule:evenodd;stroke-linejoin:round;stroke-miterlimit:1.41421;">
    <g transform="matrix(1,0,0,1,-111,-1426.04)">
        <g transform="matrix(1,0,0,1,-2980,1315.04)">
            <g transform="matrix(0.996416,0,0,0.996416,2459.27,-0.598566)">
                <circle cx="773.5" cy="251.5" r="139.5" class="fill" fill="rgb(69,90,100)"/>
                <clipPath id="_clip1">
                    <circle cx="773.5" cy="251.5" r="139.5"/>
                </clipPath>
                <g clip-path="url(#_clip1)">
                    <g transform="matrix(0.432834,0,0,0.432834,550.876,82.6368)">
                        <g transform="matrix(0.99941,0.0343375,-0.0343375,0.99941,33.7944,-3.66508)">
                            <g transform="matrix(0.488091,-0.488091,0.488091,0.488091,407.693,34.5465)">
                                <path d="M2.316,86.574L7.41,81.48C10.188,78.703 13.43,78.703 16.207,80.554L20.836,75.926C19.445,73.148 19.445,69.906 22.227,67.129L27.32,62.035C30.098,59.258 33.34,59.258 36.117,60.644L40.746,56.015C39.356,53.238 39.356,49.996 42.137,47.218L47.231,42.125C50.008,39.347 53.25,39.347 56.028,40.734L60.656,36.105C59.266,33.328 59.266,30.086 62.047,27.308L67.141,22.214C69.918,19.437 73.16,19.437 75.938,20.824L80.567,16.195C78.715,13.418 78.715,10.175 81.492,7.398L86.586,2.304C93.992,-5.102 104.641,6.007 97.695,12.952L92.601,18.046C89.824,20.823 86.121,20.823 83.804,19.437L79.176,24.066C80.566,26.843 80.566,30.085 77.785,32.862L72.691,37.956C69.914,40.734 66.672,40.734 63.894,39.347L59.265,43.976C60.656,46.753 60.656,49.995 57.875,52.773L52.781,57.866C50.004,60.644 46.761,60.644 43.984,59.257L39.355,63.886C40.746,66.663 40.746,69.905 37.965,72.683L32.871,77.777C30.093,80.554 26.851,80.554 24.074,79.167L19.445,83.796C20.836,86.113 20.836,89.816 18.054,92.593L12.961,97.687C6.015,104.632 -5.094,93.984 2.313,86.578L2.316,86.574ZM15.742,87.039C13.891,88.429 11.574,86.113 12.5,84.262C12.035,84.262 11.11,84.262 10.649,85.187L5.555,90.281C2.778,93.058 6.945,97.226 9.723,94.449L14.817,89.355C15.742,88.43 15.742,87.965 15.742,87.039L15.742,87.039ZM24.539,72.223C26.391,71.297 28.707,73.613 27.782,75.465C28.246,75.465 29.172,75 29.633,74.539L34.727,69.445C35.192,68.981 35.653,68.055 35.653,67.594C33.801,68.52 31.485,66.203 32.41,64.352C31.946,64.352 31.02,64.352 30.559,65.277L25.465,70.371C25,70.836 24.539,71.762 24.539,72.223ZM44.445,52.317C46.297,51.391 48.613,53.707 47.688,55.559C48.152,55.559 49.078,55.094 49.539,54.633L54.633,49.539C55.098,49.075 55.559,48.149 55.559,47.688C53.707,48.614 51.391,46.297 52.316,44.446C51.852,44.446 50.926,44.91 50.465,45.371L45.371,50.465C44.906,50.465 44.445,51.856 44.445,52.317ZM64.351,32.411C66.203,31.485 68.519,33.801 67.594,35.653C68.058,35.653 68.984,35.188 69.445,34.727L74.539,29.633C75.004,29.169 75.465,28.243 75.465,27.782C73.613,28.708 71.297,26.391 72.222,24.54C71.758,24.54 70.832,25.004 70.371,25.465L65.277,30.559C64.351,31.024 64.351,31.95 64.351,32.411ZM84.257,12.505C86.109,11.579 88.425,13.895 87.035,15.747C87.96,15.747 88.425,15.747 89.351,14.821L94.445,9.727C97.222,6.95 93.054,2.782 90.277,5.559L85.183,10.653C84.257,11.118 84.257,12.044 84.257,12.505L84.257,12.505Z" style="fill:white;fill-rule:nonzero;"/>
                            </g>
                            <g transform="matrix(0.488091,-0.488091,0.488091,0.488091,407.693,112.546)">
                                <path d="M2.316,86.574L7.41,81.48C10.188,78.703 13.43,78.703 16.207,80.554L20.836,75.926C19.445,73.148 19.445,69.906 22.227,67.129L27.32,62.035C30.098,59.258 33.34,59.258 36.117,60.644L40.746,56.015C39.356,53.238 39.356,49.996 42.137,47.218L47.231,42.125C50.008,39.347 53.25,39.347 56.028,40.734L60.656,36.105C59.266,33.328 59.266,30.086 62.047,27.308L67.141,22.214C69.918,19.437 73.16,19.437 75.938,20.824L80.567,16.195C78.715,13.418 78.715,10.175 81.492,7.398L86.586,2.304C93.992,-5.102 104.641,6.007 97.695,12.952L92.601,18.046C89.824,20.823 86.121,20.823 83.804,19.437L79.176,24.066C80.566,26.843 80.566,30.085 77.785,32.862L72.691,37.956C69.914,40.734 66.672,40.734 63.894,39.347L59.265,43.976C60.656,46.753 60.656,49.995 57.875,52.773L52.781,57.866C50.004,60.644 46.761,60.644 43.984,59.257L39.355,63.886C40.746,66.663 40.746,69.905 37.965,72.683L32.871,77.777C30.093,80.554 26.851,80.554 24.074,79.167L19.445,83.796C20.836,86.113 20.836,89.816 18.054,92.593L12.961,97.687C6.015,104.632 -5.094,93.984 2.313,86.578L2.316,86.574ZM15.742,87.039C13.891,88.429 11.574,86.113 12.5,84.262C12.035,84.262 11.11,84.262 10.649,85.187L5.555,90.281C2.778,93.058 6.945,97.226 9.723,94.449L14.817,89.355C15.742,88.43 15.742,87.965 15.742,87.039L15.742,87.039ZM24.539,72.223C26.391,71.297 28.707,73.613 27.782,75.465C28.246,75.465 29.172,75 29.633,74.539L34.727,69.445C35.192,68.981 35.653,68.055 35.653,67.594C33.801,68.52 31.485,66.203 32.41,64.352C31.946,64.352 31.02,64.352 30.559,65.277L25.465,70.371C25,70.836 24.539,71.762 24.539,72.223ZM44.445,52.317C46.297,51.391 48.613,53.707 47.688,55.559C48.152,55.559 49.078,55.094 49.539,54.633L54.633,49.539C55.098,49.075 55.559,48.149 55.559,47.688C53.707,48.614 51.391,46.297 52.316,44.446C51.852,44.446 50.926,44.91 50.465,45.371L45.371,50.465C44.906,50.465 44.445,51.856 44.445,52.317ZM64.351,32.411C66.203,31.485 68.519,33.801 67.594,35.653C68.058,35.653 68.984,35.188 69.445,34.727L74.539,29.633C75.004,29.169 75.465,28.243 75.465,27.782C73.613,28.708 71.297,26.391 72.222,24.54C71.758,24.54 70.832,25.004 70.371,25.465L65.277,30.559C64.351,31.024 64.351,31.95 64.351,32.411ZM84.257,12.505C86.109,11.579 88.425,13.895 87.035,15.747C87.96,15.747 88.425,15.747 89.351,14.821L94.445,9.727C97.222,6.95 93.054,2.782 90.277,5.559L85.183,10.653C84.257,11.118 84.257,12.044 84.257,12.505L84.257,12.505Z" style="fill:white;fill-rule:nonzero;"/>
                            </g>
                        </g>
                        <g transform="matrix(0.999491,-0.031887,0.031887,0.999491,56.887,26.5068)">
                            <g transform="matrix(0.488091,-0.488091,0.488091,0.488091,407.693,34.5465)">
                                <path d="M2.316,86.574L7.41,81.48C10.188,78.703 13.43,78.703 16.207,80.554L20.836,75.926C19.445,73.148 19.445,69.906 22.227,67.129L27.32,62.035C30.098,59.258 33.34,59.258 36.117,60.644L40.746,56.015C39.356,53.238 39.356,49.996 42.137,47.218L47.231,42.125C50.008,39.347 53.25,39.347 56.028,40.734L60.656,36.105C59.266,33.328 59.266,30.086 62.047,27.308L67.141,22.214C69.918,19.437 73.16,19.437 75.938,20.824L80.567,16.195C78.715,13.418 78.715,10.175 81.492,7.398L86.586,2.304C93.992,-5.102 104.641,6.007 97.695,12.952L92.601,18.046C89.824,20.823 86.121,20.823 83.804,19.437L79.176,24.066C80.566,26.843 80.566,30.085 77.785,32.862L72.691,37.956C69.914,40.734 66.672,40.734 63.894,39.347L59.265,43.976C60.656,46.753 60.656,49.995 57.875,52.773L52.781,57.866C50.004,60.644 46.761,60.644 43.984,59.257L39.355,63.886C40.746,66.663 40.746,69.905 37.965,72.683L32.871,77.777C30.093,80.554 26.851,80.554 24.074,79.167L19.445,83.796C20.836,86.113 20.836,89.816 18.054,92.593L12.961,97.687C6.015,104.632 -5.094,93.984 2.313,86.578L2.316,86.574ZM15.742,87.039C13.891,88.429 11.574,86.113 12.5,84.262C12.035,84.262 11.11,84.262 10.649,85.187L5.555,90.281C2.778,93.058 6.945,97.226 9.723,94.449L14.817,89.355C15.742,88.43 15.742,87.965 15.742,87.039L15.742,87.039ZM24.539,72.223C26.391,71.297 28.707,73.613 27.782,75.465C28.246,75.465 29.172,75 29.633,74.539L34.727,69.445C35.192,68.981 35.653,68.055 35.653,67.594C33.801,68.52 31.485,66.203 32.41,64.352C31.946,64.352 31.02,64.352 30.559,65.277L25.465,70.371C25,70.836 24.539,71.762 24.539,72.223ZM44.445,52.317C46.297,51.391 48.613,53.707 47.688,55.559C48.152,55.559 49.078,55.094 49.539,54.633L54.633,49.539C55.098,49.075 55.559,48.149 55.559,47.688C53.707,48.614 51.391,46.297 52.316,44.446C51.852,44.446 50.926,44.91 50.465,45.371L45.371,50.465C44.906,50.465 44.445,51.856 44.445,52.317ZM64.351,32.411C66.203,31.485 68.519,33.801 67.594,35.653C68.058,35.653 68.984,35.188 69.445,34.727L74.539,29.633C75.004,29.169 75.465,28.243 75.465,27.782C73.613,28.708 71.297,26.391 72.222,24.54C71.758,24.54 70.832,25.004 70.371,25.465L65.277,30.559C64.351,31.024 64.351,31.95 64.351,32.411ZM84.257,12.505C86.109,11.579 88.425,13.895 87.035,15.747C87.96,15.747 88.425,15.747 89.351,14.821L94.445,9.727C97.222,6.95 93.054,2.782 90.277,5.559L85.183,10.653C84.257,11.118 84.257,12.044 84.257,12.505L84.257,12.505Z" style="fill:white;fill-rule:nonzero;"/>
                            </g>
                            <g transform="matrix(0.488091,-0.488091,0.488091,0.488091,407.693,112.546)">
                                <path d="M2.316,86.574L7.41,81.48C10.188,78.703 13.43,78.703 16.207,80.554L20.836,75.926C19.445,73.148 19.445,69.906 22.227,67.129L27.32,62.035C30.098,59.258 33.34,59.258 36.117,60.644L40.746,56.015C39.356,53.238 39.356,49.996 42.137,47.218L47.231,42.125C50.008,39.347 53.25,39.347 56.028,40.734L60.656,36.105C59.266,33.328 59.266,30.086 62.047,27.308L67.141,22.214C69.918,19.437 73.16,19.437 75.938,20.824L80.567,16.195C78.715,13.418 78.715,10.175 81.492,7.398L86.586,2.304C93.992,-5.102 104.641,6.007 97.695,12.952L92.601,18.046C89.824,20.823 86.121,20.823 83.804,19.437L79.176,24.066C80.566,26.843 80.566,30.085 77.785,32.862L72.691,37.956C69.914,40.734 66.672,40.734 63.894,39.347L59.265,43.976C60.656,46.753 60.656,49.995 57.875,52.773L52.781,57.866C50.004,60.644 46.761,60.644 43.984,59.257L39.355,63.886C40.746,66.663 40.746,69.905 37.965,72.683L32.871,77.777C30.093,80.554 26.851,80.554 24.074,79.167L19.445,83.796C20.836,86.113 20.836,89.816 18.054,92.593L12.961,97.687C6.015,104.632 -5.094,93.984 2.313,86.578L2.316,86.574ZM15.742,87.039C13.891,88.429 11.574,86.113 12.5,84.262C12.035,84.262 11.11,84.262 10.649,85.187L5.555,90.281C2.778,93.058 6.945,97.226 9.723,94.449L14.817,89.355C15.742,88.43 15.742,87.965 15.742,87.039L15.742,87.039ZM24.539,72.223C26.391,71.297 28.707,73.613 27.782,75.465C28.246,75.465 29.172,75 29.633,74.539L34.727,69.445C35.192,68.981 35.653,68.055 35.653,67.594C33.801,68.52 31.485,66.203 32.41,64.352C31.946,64.352 31.02,64.352 30.559,65.277L25.465,70.371C25,70.836 24.539,71.762 24.539,72.223ZM44.445,52.317C46.297,51.391 48.613,53.707 47.688,55.559C48.152,55.559 49.078,55.094 49.539,54.633L54.633,49.539C55.098,49.075 55.559,48.149 55.559,47.688C53.707,48.614 51.391,46.297 52.316,44.446C51.852,44.446 50.926,44.91 50.465,45.371L45.371,50.465C44.906,50.465 44.445,51.856 44.445,52.317ZM64.351,32.411C66.203,31.485 68.519,33.801 67.594,35.653C68.058,35.653 68.984,35.188 69.445,34.727L74.539,29.633C75.004,29.169 75.465,28.243 75.465,27.782C73.613,28.708 71.297,26.391 72.222,24.54C71.758,24.54 70.832,25.004 70.371,25.465L65.277,30.559C64.351,31.024 64.351,31.95 64.351,32.411ZM84.257,12.505C86.109,11.579 88.425,13.895 87.035,15.747C87.96,15.747 88.425,15.747 89.351,14.821L94.445,9.727C97.222,6.95 93.054,2.782 90.277,5.559L85.183,10.653C84.257,11.118 84.257,12.044 84.257,12.505L84.257,12.505Z" style="fill:white;fill-rule:nonzero;"/>
                            </g>
                        </g>
                        <g transform="matrix(0.586674,-0.363701,0.363701,0.586674,461.077,222.355)">
                            <g>
                                <path d="M2.316,86.574L7.41,81.48C10.188,78.703 13.43,78.703 16.207,80.554L20.836,75.926C19.445,73.148 19.445,69.906 22.227,67.129L27.32,62.035C30.098,59.258 33.34,59.258 36.117,60.644L40.746,56.015C39.356,53.238 39.356,49.996 42.137,47.218L47.231,42.125C50.008,39.347 53.25,39.347 56.028,40.734L60.656,36.105C59.266,33.328 59.266,30.086 62.047,27.308L67.141,22.214C69.918,19.437 73.16,19.437 75.938,20.824L80.567,16.195C78.715,13.418 78.715,10.175 81.492,7.398L86.586,2.304C93.992,-5.102 104.641,6.007 97.695,12.952L92.601,18.046C89.824,20.823 86.121,20.823 83.804,19.437L79.176,24.066C80.566,26.843 80.566,30.085 77.785,32.862L72.691,37.956C69.914,40.734 66.672,40.734 63.894,39.347L59.265,43.976C60.656,46.753 60.656,49.995 57.875,52.773L52.781,57.866C50.004,60.644 46.761,60.644 43.984,59.257L39.355,63.886C40.746,66.663 40.746,69.905 37.965,72.683L32.871,77.777C30.093,80.554 26.851,80.554 24.074,79.167L19.445,83.796C20.836,86.113 20.836,89.816 18.054,92.593L12.961,97.687C6.015,104.632 -5.094,93.984 2.313,86.578L2.316,86.574ZM15.742,87.039C13.891,88.429 11.574,86.113 12.5,84.262C12.035,84.262 11.11,84.262 10.649,85.187L5.555,90.281C2.778,93.058 6.945,97.226 9.723,94.449L14.817,89.355C15.742,88.43 15.742,87.965 15.742,87.039L15.742,87.039ZM24.539,72.223C26.391,71.297 28.707,73.613 27.782,75.465C28.246,75.465 29.172,75 29.633,74.539L34.727,69.445C35.192,68.981 35.653,68.055 35.653,67.594C33.801,68.52 31.485,66.203 32.41,64.352C31.946,64.352 31.02,64.352 30.559,65.277L25.465,70.371C25,70.836 24.539,71.762 24.539,72.223ZM44.445,52.317C46.297,51.391 48.613,53.707 47.688,55.559C48.152,55.559 49.078,55.094 49.539,54.633L54.633,49.539C55.098,49.075 55.559,48.149 55.559,47.688C53.707,48.614 51.391,46.297 52.316,44.446C51.852,44.446 50.926,44.91 50.465,45.371L45.371,50.465C44.906,50.465 44.445,51.856 44.445,52.317ZM64.351,32.411C66.203,31.485 68.519,33.801 67.594,35.653C68.058,35.653 68.984,35.188 69.445,34.727L74.539,29.633C75.004,29.169 75.465,28.243 75.465,27.782C73.613,28.708 71.297,26.391 72.222,24.54C71.758,24.54 70.832,25.004 70.371,25.465L65.277,30.559C64.351,31.024 64.351,31.95 64.351,32.411ZM84.257,12.505C86.109,11.579 88.425,13.895 87.035,15.747C87.96,15.747 88.425,15.747 89.351,14.821L94.445,9.727C97.222,6.95 93.054,2.782 90.277,5.559L85.183,10.653C84.257,11.118 84.257,12.044 84.257,12.505L84.257,12.505Z" style="fill:white;fill-rule:nonzero;"/>
                            </g>
                        </g>
                        <g transform="matrix(1,0,0,1,7.50976,-22.5522)">
                            <path d="M439.037,162.911C448.525,161.762 454.249,166.418 458.404,167.778C462.673,169.175 467.037,170.306 471.221,171.941L471.222,171.941C473.594,172.179 490.036,180.82 492.072,182.129L492.121,182.149C496.27,183.816 500.518,185.144 504.922,185.955C506.738,184.459 506.612,187.586 506.459,187.958L508.014,188.073L508.014,188.073C508.748,188.328 509.481,188.583 510.215,188.838C511.14,189.773 519.552,192.168 520.04,192.21L520.041,192.21C521.204,192.088 522.354,192.028 523.34,192.838C525.683,192.72 527.965,192.953 530.098,194.029L530.098,194.029C533.04,194.349 535.807,195.16 538.226,196.939L538.226,196.939C540.799,197.373 542.85,198.575 544.11,200.939L544.122,200.937C547.966,200.421 550.552,202.665 553.084,205.028L553.084,205.028L553.085,205.028C554.102,205.335 554.748,206.022 555.101,207.006L555.162,207.071C555.467,207.395 555.772,207.719 556.078,208.043L556.078,208.043C556.799,208.662 557.517,209.28 558.237,209.898L558.236,209.899L558.237,209.899C561.553,212.709 560.321,215.25 557.776,217.713L557.777,217.718C557.816,219.45 556.05,219.342 555.235,220.205L555.233,220.209C553.985,223.515 551.886,221.825 549.953,221.109L549.523,221.111L549.104,221.02L549.104,221.02L549.104,221.02C547.749,221.315 546.395,221.609 545.04,221.904C545.037,221.902 545.033,221.899 545.029,221.897L545.04,221.904C541.184,222.708 537.553,224.134 534.04,225.886L534.04,225.886L534.04,225.886C533.113,226.664 532.186,227.442 531.259,228.22L531.258,228.22L531.258,228.22C530.945,228.523 530.631,228.825 530.317,229.127L530.317,229.127L530.317,229.128C529.164,231.255 527.391,232.77 525.411,234.078L525.388,234.094C523.561,236.619 519.999,238.095 517.221,239.053C515.351,240.395 513.251,240.118 511.161,239.916C507.713,240.661 505.927,240.19 503.846,237.396C503.686,236.971 503.639,236.53 503.698,236.08C501.994,236.227 501.674,234.452 500.718,233.555C499.039,230.784 497.483,228.558 498.621,225.053C495.56,226.14 497.949,220.083 496.979,220.012C496.02,219.942 495.061,219.871 494.101,219.801L494.101,219.802C492.778,219.882 491.454,219.963 490.131,220.044L490.131,220.044L490.13,220.044C488.315,221.566 485.47,219.965 483.862,222.114C490.457,222.488 535.847,282.364 535.144,294.001L535.144,294.001C537.495,294.494 540.034,293.501 542.269,294.91L542.271,294.91C543.216,294.95 544.161,294.99 545.106,295.03L545.106,295.03L545.106,295.029C547.194,295.102 549.376,294.535 551.276,295.919L551.28,295.921C551.567,295.836 551.844,295.861 552.112,295.994L552.112,295.993C560.776,296.023 569.441,296.054 578.105,296.084C577.591,296.263 577.073,296.412 576.554,296.535C577.078,296.465 577.597,296.329 578.106,296.085C592.835,295.402 607.514,295.943 622.136,297.883L622.163,297.882C626.836,297.78 631.45,298.334 636.041,299.129L636.04,299.128C638.437,299.058 640.895,298.352 643.141,299.821C643.464,299.775 644.109,299.965 644.109,299.965L644.108,299.964C646.66,299.893 665.231,304.696 671.115,306.993C671.374,307.012 671.666,307.114 672.003,307.33L672.004,307.331L672.004,307.331L672.005,307.331C672.312,307.593 672.619,307.855 672.926,308.117L672.926,308.118L672.926,308.117C680.526,307.136 684.106,317.007 685.027,322.434C687.025,334.201 685.605,340.65 682.091,351.868C680.974,355.433 677.34,363.436 673.296,365.058L673.291,365.064C669.636,370.986 665.807,377.663 662.065,383.962L662.062,383.961C662.064,383.962 662.064,383.962 662.064,383.962C661.177,385.699 650.288,404.893 647.16,408.88L647.086,408.974C644.265,413.097 642.092,417.698 638.211,421.042L638.21,421.042L638.211,421.042C637.756,422.203 637.226,423.311 636.111,424.002L636.111,424.002L636.11,424.002C632.456,429.674 616.404,456.476 615.142,460.028L615.141,460.029C615.062,461.122 615.245,462.31 614.059,462.997L614.052,463.001C612.765,465.683 610.216,471.058 610.216,471.058C609.827,474.498 607.979,477.275 606.127,480.049L606.126,480.049L606.126,480.049C605.31,483.013 603.81,485.651 602.215,488.243L602.214,488.242C601.921,488.896 601.63,489.549 601.337,490.201L601.336,490.201L601.337,490.203C600.174,494.7 597.459,498.435 595.336,502.462C595.271,502.619 595.188,502.779 595.086,502.945L595.085,502.946L595.085,502.946L595.085,502.946C593.983,505.142 593.322,507.601 591.315,509.255L591.303,509.265C590.601,510.528 589.898,511.791 589.196,513.055L589.195,513.055L589.195,513.055C589.114,514.58 588.361,515.586 586.891,516.038C585.91,519.145 582.682,520.352 581.07,522.925L581.061,522.94C581.426,523.607 581.791,524.275 582.156,524.943L582.156,524.944C583.969,527.599 583.262,529.317 580.212,530.162L580.212,530.161L580.212,530.162C579.879,530.469 579.546,530.776 579.214,531.085L579.215,531.086C583.122,534.084 578.417,537.833 580.082,541.026L580.082,541.025L580.083,541.018L580.083,541.019L580.084,541.018C581.939,542.884 580.797,544.006 579.098,544.99L579.098,544.99C578.778,545.33 578.457,545.672 578.137,546.014C579.462,549.791 579.541,553.158 575.16,555.055L575.16,555.054C575.16,555.054 574.467,556.135 574.12,556.675L573.971,556.906C572.357,559.88 570.613,560.119 568.017,561.929C562.333,565.892 556.446,569.599 551.086,573.99L551.084,573.99L551.086,573.99C547.685,577.915 544.45,582.007 540.121,585.01L540.121,585.009L540.121,585.01L540.12,585.011C540.023,587.022 538.695,588.111 537.12,589.016L537.12,589.016C536.45,590.012 535.781,591.008 535.111,592.003L535.11,592.003C535.097,593.439 534.439,594.444 533.108,594.999L533.108,594.998L533.108,594.998C531.083,596.11 530.484,598.362 529.115,599.998L529.114,599.999L529.116,599.998C528.53,602.265 527.606,604.261 525.119,605.01C521.569,610.549 516.768,614.743 511.123,618.032L511.123,618.031L511.123,618.031C507.875,623.431 500.255,633.281 493.11,632.995L493.109,632.994L493.109,632.996C489.662,631.919 488.038,635.699 485.107,635.998L485.107,635.997L485.107,635.998C481.003,639.311 478.045,636.53 475.021,634.102L475.024,634.101L475.022,634.101C474.401,634.038 473.157,633.912 473.157,633.912L473.157,633.914C471.445,633.835 469.607,634.551 468.108,633.122L468.109,633.122L468.108,633.122C463.557,632.185 461.146,629.203 460.186,624.833L460.185,624.834C458.991,624.249 459.182,623.08 459.018,622.061L459.018,622.06L459.018,622.061C457.582,621.063 456.219,620.012 456.028,618.08L456.013,618.079C455.709,618.071 455.104,618.005 455.104,618.005C450.194,618.033 442.872,605.776 442.105,602.005L442.105,602.005C442.029,601.705 441.885,601.104 441.885,601.104C440.952,598.552 438.981,596.816 437.097,595.011L437.096,595.012C436.292,594.973 435.514,594.875 435.041,594.095L435.041,594.094L435.04,594.095C434.377,593.752 433.714,593.41 433.051,593.067L433.051,593.066C431.984,592.98 430.841,593.123 430.098,592.076L430.098,592.075L430.098,592.076C428.994,591.992 427.801,592.172 427.055,591.039L427.054,591.039C424.23,588.969 428.042,586.594 428.425,584.629C429.183,580.739 427.624,578.361 426.018,575.067C426.017,575.067 426.018,575.066 426.019,575.065L426.017,575.067C424.883,570.846 419.488,559.22 425.089,554.856C428.231,552.408 443.431,548.519 442.119,541.002L442.119,541.002L442.118,541.001C441.125,536.332 440.133,531.664 439.14,526.995L439.137,526.983C438.597,524.835 436.047,523.358 437.043,520.696L437.043,520.696L437.042,520.694C437.031,520.465 437.051,520.006 437.051,520.006C436.08,519.423 435.109,518.841 434.139,518.259L434.137,518.255C431.407,516.181 429.062,513.725 426.98,511.01C426.98,511.01 423.899,507.919 424.107,506.007L424.107,506.007C422.759,505.354 421.765,504.347 421.108,503.004C417.782,498.624 412.644,495.609 411.178,489.827L411.178,489.827C410.462,489.267 409.745,488.706 409.029,488.146L409.02,488.143C407.554,487.601 406.611,486.548 406.057,485.113L406.056,485.113C398.103,473.235 405.898,462.568 406.167,450.141L406.167,450.14L406.167,450.14L406.167,450.14L406.167,450.14C407.681,446.184 404.601,441.876 407.099,437.996L407.1,437.997L407.1,437.996C407.099,436.007 407.098,434.016 407.096,432.024C405.836,427.321 404.939,422.441 404.982,417.572C405.16,397.85 419.458,383.283 425.108,365.426L425.108,365.425C426.311,360.865 435.976,348.903 435.846,346.23C435.891,346.113 435.959,345.998 436.048,345.886C436.421,343.849 442.183,334.21 443.26,331.948C446.01,326.172 464.352,302.93 455.023,289.402C454.408,288.51 439.17,257.561 434.965,246.223L434.964,246.219C429.909,235.687 424.898,225.135 421.027,214.089L421.027,214.089C416.691,205.767 410.281,188.27 414.09,178.811L414.106,178.794C411.997,171.357 432.408,161.263 439.037,162.911M625.97,351.808L625.97,351.808C625.396,351.899 624.823,351.989 624.25,352.08L624.25,352.08C623.494,352.771 621.35,353.098 621.35,353.098C619.115,354.119 616.848,355.034 614.344,355.121L614.343,355.121L614.344,355.122C613.13,356.062 611.704,356.097 610.265,356.078L610.265,356.078C608.746,357.051 580.152,360.367 575.32,359.525C574.54,359.531 573.768,359.437 573.017,359.046C570.712,359.016 559.431,359.933 558.105,359.961L558.104,359.96L558.104,359.961C555.591,361.255 551.953,359.807 550.291,363.172L550.29,363.172C549.928,363.791 549.564,364.409 549.2,365.029L549.201,365.029C547.845,369.07 544.622,371.783 542.105,374.998L542.104,374.998C539.042,383.518 524.939,390.166 517.15,392.097L517.128,392.102C513.271,395.017 508.744,395.699 504.106,396.01C504.156,395.96 504.206,395.91 504.255,395.86C504.199,395.904 504.148,395.953 504.106,396.01C499.858,397.228 495.522,397.212 491.167,396.918C490.494,397.258 483.563,401.601 483.264,401.923L482.863,402.106L482.867,402.213C482.987,402.105 483.119,402.009 483.263,401.923C486.489,405.707 485.87,410.647 487.192,415.002C487.293,415.149 487.374,415.301 487.436,415.458C489.668,419.745 490.374,424.332 489.969,429.137L489.969,429.137L489.97,429.137C490.084,429.369 490.199,429.599 490.316,429.829L490.34,429.875C494.697,435.472 496.713,446.043 498.494,452.567C505.23,477.242 505.949,476.926 510.117,502L510.117,502C510.117,502 511.254,505.31 511.048,506.989L511.047,506.988L511.047,506.989C511.104,508.313 511.16,509.639 511.216,510.964L511.216,510.965C512.655,513.12 511.911,515.593 512.225,517.912L512.227,517.925C513.737,520.478 513.075,523.28 513.162,525.998L513.161,525.999C513.706,533.009 511.708,539.499 509.086,545.861L509.086,545.861L509.086,545.862L509.086,545.862L509.086,545.862C507,547.979 508.701,549.5 509.911,551.098L509.91,551.1L509.912,551.099C509.873,553.379 510.54,555.372 512.285,556.926L512.285,556.926L512.285,556.926C513.967,559.898 515.65,562.868 517.333,565.84C517.674,565.779 517.907,565.911 518.031,566.234L518.031,566.235C519.546,568.915 520.535,569.258 522.703,566.822C525.296,563.908 545.315,539.725 546.203,535.367C546.072,535.138 545.914,534.909 545.73,534.676C546.275,530.713 546.887,526.789 551.084,524.823C550.088,522.807 551.111,522.035 552.99,521.791C553.004,521.8 553.017,521.81 553.03,521.819C553.469,518.928 558.695,505.447 563.998,507.334C564.326,506.136 564.766,504.99 565.634,504.05C565.791,503.975 565.933,503.894 566.061,503.807C565.567,503.321 565.448,502.518 565.432,501.825C565.153,489.288 566.511,489.435 565.347,477.051C565.592,476.476 565.848,476.134 566.112,475.963C564.982,473.412 564.125,470.795 564.175,467.956L564.175,467.956C564.176,467.955 564.037,468.043 564.037,468.043L564.034,468.032C562.48,463.635 562.105,459.426 565.973,455.893L565.973,455.893C566.002,455.6 566.067,455.316 566.17,455.04L566.169,455.04C567.113,452.82 569.063,451.857 571.144,451.058L571.144,451.058L571.144,451.058C575.423,448.35 580.262,448.167 585.096,447.97L585.096,447.971L585.096,447.97C585.77,447.578 586.444,447.188 587.118,446.796L587.119,446.797C587.235,446.687 587.351,446.577 587.467,446.467L587.699,446.247C587.816,446.137 587.932,446.027 588.048,445.917C588.048,445.917 588.737,444.636 589.081,443.996L589.082,443.996C579.371,460.698 592.817,412.954 623.994,356.758L623.995,356.755C623.755,354.747 627.437,354.306 625.97,351.808L625.97,351.808M636.11,424.002L636.11,424.002L636.11,424.002L636.11,424.002M491.108,395.987C491.025,395.988 490.943,395.99 490.86,395.993C490.973,396.228 491.049,396.517 491.12,396.756C491.081,396.585 491.077,396.422 491.106,396.265C491.06,396.266 491.014,396.267 490.967,396.268C490.967,396.269 491.1,396.002 491.108,395.987M578.138,358.874L578.135,358.88L578.149,358.88L578.146,358.874L578.142,358.867L578.138,358.874M626.165,350.134C626.283,350.225 626.419,350.267 626.582,350.236C626.443,350.202 626.304,350.167 626.165,350.134" style="fill:white;fill-rule:nonzero;"/>
                        </g>
                    </g>
                </g>
            </g>
        </g>
    </g>
</svg>
