<?xml version="1.0" encoding="UTF-8" standalone="no"?>
<!DOCTYPE svg PUBLIC "-//W3C//DTD SVG 1.1//EN" "http://www.w3.org/Graphics/SVG/1.1/DTD/svg11.dtd">
<svg width="100%" height="100%" viewBox="0 0 278 278" version="1.1" xmlns="http://www.w3.org/2000/svg" xmlns:xlink="http://www.w3.org/1999/xlink" xml:space="preserve" xmlns:serif="http://www.serif.com/" style="fill-rule:evenodd;clip-rule:evenodd;stroke-linejoin:round;stroke-miterlimit:1.41421;">
    <g transform="matrix(1,0,0,1,-111,-1435.08)">
        <g transform="matrix(1,0,0,1,-2980,1324.08)">
            <g transform="matrix(0.996416,0,0,0.996416,2459.27,-0.598566)">
                <circle cx="773.5" cy="251.5" r="139.5" class="fill" fill="rgb(255,193,7)"/>
                <clipPath id="_clip1">
                    <circle cx="773.5" cy="251.5" r="139.5"/>
                </clipPath>
                <g clip-path="url(#_clip1)">
                    <g transform="matrix(0.542386,0,0,0.542386,630.31,-1121.15)">
                        <path d="M175.497,2241.56C172.394,2257.67 152.903,2333.6 149.497,2344.06C146.091,2354.51 141.497,2378.06 141.497,2378.06C143.148,2380.04 144.385,2385.36 144.497,2389.06C144.608,2392.76 139.497,2402.06 139.497,2402.06C142.031,2406.89 139.497,2411.06 139.497,2411.06C141.671,2410.95 140.497,2444.06 140.497,2444.06C149.11,2440.53 150.376,2439.14 152.497,2438.06C163.168,2432.58 174.471,2432.4 178.497,2432.06C182.523,2431.71 184.007,2432.62 185.497,2435.06C186.986,2437.49 189.715,2456.91 190.497,2464.06C191.279,2471.21 188.072,2494.13 187.497,2499.06C186.928,2503.93 187.968,2505.35 190.497,2509.06C193.025,2512.76 198.203,2525.6 199.497,2530.06C200.79,2534.52 203.497,2535.06 203.497,2535.06C213.195,2536.34 220.497,2531.06 220.497,2531.06C221.875,2526.01 228.849,2518.16 230.497,2515.06C232.144,2511.95 235.339,2505.38 236.497,2503.06C237.654,2500.73 236.039,2502.69 244.497,2491.06C253.046,2479.3 261.338,2470.18 266.497,2465.06C271.656,2459.93 275.412,2461.96 278.497,2464.06C282.832,2467 283.462,2471.82 282.497,2476.06C281.531,2480.3 281.497,2488.06 281.497,2488.06C314.594,2491.75 393.497,2498.06 393.497,2498.06C393.359,2497.97 393.322,2496.61 393.497,2495.06C393.672,2493.51 394.383,2493.03 396.497,2493.06C398.611,2493.08 398.497,2495.06 398.497,2495.06C402.278,2493.94 401.497,2498.06 401.497,2498.06C402.802,2497.63 403.497,2499.06 403.497,2499.06C419.989,2500.23 417.489,2509.39 418.497,2516.06C419.56,2523.1 412.688,2563.1 405.497,2577.06C402.703,2582.48 397.588,2593.83 395.497,2599.06C393.405,2604.28 383.571,2615.18 378.497,2629.06C373.422,2642.94 357.76,2656.91 348.497,2665.06C339.234,2673.2 336.168,2677.38 328.497,2681.06C317.912,2686.13 313.497,2691.06 313.497,2691.06C291.357,2715.29 270.53,2706.58 252.497,2701.06C234.463,2695.53 210.998,2672.41 202.497,2664.06C193.996,2655.71 191.605,2649.14 184.497,2644.06C177.388,2638.97 161.044,2617.25 156.497,2611.06C151.95,2604.86 138.311,2577.66 136.497,2572.06C134.682,2566.45 130.497,2553.06 130.497,2553.06C125.442,2551.06 123.283,2541.02 121.497,2533.06C119.711,2525.09 116.039,2520.36 115.497,2519.06C114.955,2517.75 114.599,2515.37 114.497,2513.06C114.041,2502.74 112.518,2491.7 112.497,2489.06C112.475,2486.42 113.497,2465.06 113.497,2465.06C107.959,2464.23 110.497,2461.06 110.497,2461.06C108.015,2459.2 110.497,2457.06 110.497,2457.06C108.208,2455.5 110.497,2453.06 110.497,2453.06C107.94,2449.68 113.497,2449.06 113.497,2449.06C113.872,2439.78 116.04,2432.43 119.497,2424.06C122.953,2415.68 124.497,2411.06 124.497,2411.06C118.211,2402.63 125.497,2385.06 125.497,2385.06C123.684,2382.28 126.497,2381.06 126.497,2381.06C126.251,2378.06 128.497,2378.06 128.497,2378.06C127.562,2374.51 131.497,2374.06 131.497,2374.06C131.633,2371.5 134.497,2372.06 134.497,2372.06C133.823,2343.09 149.486,2241.62 149.497,2241.56L175.497,2241.56ZM168.497,2588.06C168.497,2588.06 200.919,2664.89 238.497,2676.06C251.562,2679.94 279.889,2686.93 305.497,2677.06C312.606,2674.32 323.798,2668.42 327.497,2665.06C331.196,2661.69 379.446,2589.56 404.497,2520.06C404.497,2520.06 401.282,2521.51 400.497,2523.06C399.712,2524.61 397.893,2525.71 395.497,2526.06C393.1,2526.41 383.165,2532.98 369.497,2544.06C355.829,2555.14 352.359,2557.97 330.497,2565.06C308.635,2572.14 311.073,2569.6 305.497,2573.06C299.92,2576.51 300.014,2574.62 289.497,2582.06C278.979,2589.5 274.776,2590.6 268.497,2594.06C262.217,2597.51 254.638,2599.53 252.497,2600.06C252.497,2600.06 233.26,2607.93 209.497,2604.06C205.42,2603.39 194.375,2596.3 189.497,2595.06C184.618,2593.82 169.311,2586.58 168.497,2588.06ZM279.497,2495.06C279.497,2495.06 276.484,2498.29 275.497,2505.06C274.948,2508.82 273.797,2511.66 275.497,2517.06C277.197,2522.45 277.113,2524.99 277.497,2529.06C277.88,2533.12 279.014,2532.97 278.497,2536.06C277.98,2539.14 277.372,2536.84 274.497,2543.06C272.879,2546.56 272.11,2549.65 267.497,2538.06C267.497,2538.06 267.041,2542.95 257.497,2540.06C257.497,2540.06 253.145,2550.82 250.497,2554.06C247.849,2557.29 245.743,2566.43 248.497,2565.06C251.251,2563.68 254.813,2561.99 271.497,2559.06C288.181,2556.12 287.53,2555.6 291.497,2555.06C295.463,2554.52 304.995,2551.68 311.497,2549.06C313.38,2548.3 321.396,2547.55 325.497,2546.06C329.597,2544.56 339.049,2536.86 344.497,2535.06C349.945,2533.26 380.708,2522.93 382.497,2520.06C384.285,2517.18 385.3,2511.32 391.497,2508.06C391.497,2508.06 392.502,2505.89 392.497,2505.06C392.497,2505.06 324.537,2503.82 279.497,2495.06ZM170.497,2454.06C170.497,2454.06 157.585,2451.27 154.497,2455.06C154.497,2455.06 165.915,2462.06 169.497,2474.06C169.497,2474.06 168.479,2455.69 170.497,2454.06Z" style="fill:white;"/>
                    </g>
                </g>
            </g>
        </g>
    </g>
</svg>
