<?xml version="1.0" encoding="UTF-8" standalone="no"?>
<!DOCTYPE svg PUBLIC "-//W3C//DTD SVG 1.1//EN" "http://www.w3.org/Graphics/SVG/1.1/DTD/svg11.dtd">
<svg width="100%" height="100%" viewBox="0 0 278 278" version="1.1" xmlns="http://www.w3.org/2000/svg" xmlns:xlink="http://www.w3.org/1999/xlink" xml:space="preserve" xmlns:serif="http://www.serif.com/" style="fill-rule:evenodd;clip-rule:evenodd;stroke-linejoin:round;stroke-miterlimit:1.41421;">
    <g transform="matrix(1,0,0,1,-111,-1435.08)">
        <g transform="matrix(1,0,0,1,-2980,1324.08)">
            <g transform="matrix(0.996416,0,0,0.996416,2459.27,-0.598566)">
                <circle cx="773.5" cy="251.5" r="139.5" class="fill" fill="rgb(0,188,212)"/>
                <clipPath id="_clip1">
                    <circle cx="773.5" cy="251.5" r="139.5"/>
                </clipPath>
                <g clip-path="url(#_clip1)">
                    <g transform="matrix(0.608742,0,0,0.608742,-224.061,-70.0139)">
                        <path d="M1619,299L1619,395C1619,395 1612.18,403.092 1612,410C1612,410 1608.59,416.816 1612,429C1612,429 1605.9,441.116 1605,452C1605,452 1595.94,450.987 1592,452C1592,452 1582.68,445.337 1580,439C1577.32,432.663 1565.51,417.787 1544,402C1544,402 1538.58,396.914 1533,397C1527.42,397.086 1519.63,400.909 1518,409C1516.37,417.091 1514.32,423.857 1514,438C1513.68,452.143 1511.52,460.366 1507,470C1502.48,479.634 1495.78,496.428 1496,501C1496.22,505.572 1497.68,508.185 1497,512C1497,512 1496.37,516.166 1499,516C1501.63,515.834 1501.17,514.733 1503,509C1504.83,503.267 1503.53,501.645 1508,497C1512.47,492.355 1513.21,491.515 1515,491C1516.79,490.485 1525.82,487.271 1527,484C1528.18,480.729 1527.32,478.928 1526,478C1524.68,477.072 1522.14,475.212 1523,471C1523.86,466.788 1528.28,451.9 1539,437C1539,437 1542.23,454.653 1556,468C1557.27,469.235 1565.72,477.372 1568,485C1568.25,485.833 1569.1,489.16 1576,495C1576,495 1561.63,515.461 1558,527C1554.37,538.539 1555.15,540.001 1546,556C1544.37,558.857 1542.08,561.99 1539,573C1539,573 1527.64,584.873 1518,608C1516.29,612.105 1507.05,626.801 1501,630C1494.95,633.199 1494.99,636.349 1491,645C1487.01,653.651 1479.76,655.457 1478,664C1477.5,666.427 1477.62,669.547 1480,670C1482.38,670.453 1483.8,668.005 1487,668C1490.2,667.995 1499.18,668.899 1503,657C1506.82,645.101 1506.25,644.166 1509,643C1511.75,641.834 1513.08,640.055 1514,637C1514.92,633.945 1512.95,636.102 1522,627C1531.05,617.898 1552.86,593.484 1557,584C1558,581.714 1558.5,576.946 1562,574C1563.63,572.632 1562.57,567.546 1569,562C1575.43,556.454 1599.04,527.477 1602,522C1604.96,516.523 1605.99,511.307 1616,510C1616,510 1620.58,520.084 1632,522C1634.32,522.389 1634.87,523.636 1636,525C1637.13,526.364 1642.63,530.008 1647,530C1651.37,529.992 1656.2,527.501 1661,524C1665.22,520.917 1675.4,510.268 1685,510C1686.42,509.96 1690.9,509.911 1694,511C1697.1,512.089 1699.68,509.597 1707,515C1714.32,520.403 1730.17,516.071 1734,514C1737.83,511.929 1746.35,504.171 1747,501C1747.65,497.829 1747.23,488.906 1741,484C1734.77,479.094 1724.46,473.526 1715,477C1715,477 1706.01,474.164 1703,483C1703,483 1694.81,483.127 1695,480C1695.19,476.873 1702.74,477.086 1705,476C1707.26,474.914 1713.55,471.806 1715,470C1716.45,468.194 1720.21,470.395 1728,471C1735.79,471.605 1733.91,471.669 1741,471C1743.01,470.81 1743.7,470.594 1749,471C1754.3,471.406 1773.6,467.203 1778,466C1782.4,464.797 1784.66,464.059 1789,464C1793.34,463.941 1796.5,464.079 1799,467C1801.5,469.921 1808.31,470.624 1811,468C1812.39,466.642 1819.76,468.187 1820,466C1820.24,463.813 1819.36,462.159 1817,462C1817,462 1829.76,459.097 1835.31,453.367C1836.5,452.144 1835.44,452.701 1836,451C1836.59,449.196 1836.23,449.028 1827.38,451.163C1824.45,451.869 1818.41,450.627 1815,451C1796.82,452.99 1808.76,452.384 1794,451C1779.24,449.616 1761.07,451.074 1754,452C1746.93,452.926 1736.13,452.357 1730,449C1726.09,446.86 1718.17,445.252 1710,446C1701.83,446.748 1685.87,447.503 1678,447C1670.13,446.497 1639.57,444.075 1633,446C1626.43,447.925 1623.67,449.139 1621,449C1621,449 1619.68,436.564 1621,434C1622.32,431.436 1633.28,415.967 1631,411C1631,411 1634.12,407.06 1631,405C1631,405 1629.41,401.661 1644,391C1644,391 1639.42,382.047 1633,380C1633,380 1628.37,387.022 1627,387L1628,299L1619,299Z" style="fill:white;"/>
                    </g>
                </g>
            </g>
        </g>
    </g>
</svg>
